# MagicaVoxel @ ephtracy

# material
mtllib road.mtl
usemtl palette

# normals
vn -1 0 0
vn 1 0 0
vn 0 0 1
vn 0 0 -1
vn 0 -1 0
vn 0 1 0

# texcoords
vt 0.982422 0.5
vt 0.986328 0.5
vt 0.990234 0.5

# verts
v -3.5 0 4
v -3.5 0 -4
v -3.5 1 4
v -3.5 1 -4
v 3.5 0 4
v 3.5 0 -4
v 3.5 1 4
v 3.5 1 -4
v -3.5 0 4
v -3.5 1 4
v -2.5 0 4
v -2.5 1 4
v -0.5 0 4
v -0.5 1 4
v 0.5 0 4
v 0.5 1 4
v 2.5 0 4
v 2.5 1 4
v 3.5 0 4
v 3.5 1 4
v -3.5 0 -4
v -3.5 1 -4
v -2.5 0 -4
v -2.5 1 -4
v 2.5 0 -4
v 2.5 1 -4
v 3.5 0 -4
v 3.5 1 -4
v -3.5 0 4
v -2.5 0 4
v -0.5 0 4
v 0.5 0 4
v 2.5 0 4
v 3.5 0 4
v -0.5 0 1
v 0.5 0 1
v -0.5 0 -0
v 0.5 0 -0
v -0.5 0 -3
v 0.5 0 -3
v -3.5 0 -4
v -2.5 0 -4
v 2.5 0 -4
v 3.5 0 -4
v -3.5 1 4
v -2.5 1 4
v -0.5 1 4
v 0.5 1 4
v 2.5 1 4
v 3.5 1 4
v -0.5 1 1
v 0.5 1 1
v -0.5 1 -0
v 0.5 1 -0
v -0.5 1 -3
v 0.5 1 -3
v -3.5 1 -4
v -2.5 1 -4
v 2.5 1 -4
v 3.5 1 -4

# faces
f 3/2/1 2/2/1 1/2/1
f 4/2/1 2/2/1 3/2/1
f 5/2/2 6/2/2 7/2/2
f 7/2/2 6/2/2 8/2/2
f 11/2/3 10/2/3 9/2/3
f 12/2/3 10/2/3 11/2/3
f 13/1/3 12/1/3 11/1/3
f 14/1/3 12/1/3 13/1/3
f 15/3/3 14/3/3 13/3/3
f 16/3/3 14/3/3 15/3/3
f 17/1/3 16/1/3 15/1/3
f 18/1/3 16/1/3 17/1/3
f 19/2/3 18/2/3 17/2/3
f 20/2/3 18/2/3 19/2/3
f 21/2/4 22/2/4 23/2/4
f 23/2/4 22/2/4 24/2/4
f 23/1/4 24/1/4 25/1/4
f 25/1/4 24/1/4 26/1/4
f 25/2/4 26/2/4 27/2/4
f 27/2/4 26/2/4 28/2/4
f 35/1/5 31/1/5 30/1/5
f 35/3/5 32/3/5 31/3/5
f 36/1/5 33/1/5 32/1/5
f 36/3/5 32/3/5 35/3/5
f 37/1/5 35/1/5 30/1/5
f 37/1/5 36/1/5 35/1/5
f 38/1/5 33/1/5 36/1/5
f 38/1/5 36/1/5 37/1/5
f 39/1/5 37/1/5 30/1/5
f 39/3/5 38/3/5 37/3/5
f 40/1/5 33/1/5 38/1/5
f 40/3/5 38/3/5 39/3/5
f 41/2/5 30/2/5 29/2/5
f 42/1/5 39/1/5 30/1/5
f 42/2/5 30/2/5 41/2/5
f 42/1/5 40/1/5 39/1/5
f 43/1/5 33/1/5 40/1/5
f 43/1/5 40/1/5 42/1/5
f 43/2/5 34/2/5 33/2/5
f 44/2/5 34/2/5 43/2/5
f 46/1/6 47/1/6 51/1/6
f 47/3/6 48/3/6 51/3/6
f 48/1/6 49/1/6 52/1/6
f 51/3/6 48/3/6 52/3/6
f 46/1/6 51/1/6 53/1/6
f 51/1/6 52/1/6 53/1/6
f 52/1/6 49/1/6 54/1/6
f 53/1/6 52/1/6 54/1/6
f 46/1/6 53/1/6 55/1/6
f 53/3/6 54/3/6 55/3/6
f 54/1/6 49/1/6 56/1/6
f 55/3/6 54/3/6 56/3/6
f 45/2/6 46/2/6 57/2/6
f 46/1/6 55/1/6 58/1/6
f 57/2/6 46/2/6 58/2/6
f 55/1/6 56/1/6 58/1/6
f 56/1/6 49/1/6 59/1/6
f 58/1/6 56/1/6 59/1/6
f 49/2/6 50/2/6 59/2/6
f 59/2/6 50/2/6 60/2/6
